<svg xmlns="http://www.w3.org/2000/svg" width="1058" height="195" viewBox="0 0 1058 195" version="1.1"><path d="M 58.016 3.024 C 56.100 3.475, 53.512 5.029, 52.266 6.477 C 50.108 8.985, 50 9.905, 50 25.688 C 50 40.571, 49.794 42.598, 47.981 45.531 C 44.624 50.963, 40.367 52, 21.434 52 C -1.282 52, 0 50.565, 0 76 C 0 101.687, -1.675 100, 23.820 100 C 49.506 100, 47.668 101.694, 48.145 77.580 C 48.479 60.753, 48.694 58.885, 50.602 56.316 C 54.514 51.047, 55.210 50.947, 86 51.234 C 113.091 51.487, 114.701 51.608, 118.568 53.678 C 123.799 56.478, 129.422 62.718, 130.987 67.461 C 131.677 69.552, 132.045 74.190, 131.827 78.048 C 131.372 86.102, 128.264 91.461, 121.139 96.472 L 116.834 99.500 85.137 100 C 53.706 100.496, 53.400 100.521, 48.724 103 C 42.338 106.386, 4.331 144.105, 1.869 149.500 C 0.297 152.946, 0.041 156.305, 0.022 173.768 L 0 194.036 24.250 193.768 L 48.500 193.500 48.608 173 C 48.668 161.725, 48.780 151.751, 48.858 150.836 C 48.987 149.324, 52.336 149.134, 85.250 148.770 C 119.797 148.388, 121.829 148.261, 128.500 146.070 C 154.380 137.568, 173.020 118.193, 179.554 93 C 181.602 85.106, 181.858 69.775, 180.081 61.500 C 173.552 31.107, 146.992 7.369, 114.678 3.046 C 105.602 1.832, 63.155 1.816, 58.016 3.024 M 678.500 69.335 C 666.177 73.371, 657.203 78.777, 648.373 87.485 C 640.049 95.695, 636.222 101.808, 632.400 113 C 629.566 121.301, 629.736 140.071, 632.731 149.593 C 635.606 158.732, 643.074 170.122, 650.576 176.810 C 660.491 185.649, 682.061 194.973, 690 193.853 C 692.186 193.544, 692.904 192.307, 695.715 184 C 697.483 178.775, 698.833 173.174, 698.715 171.554 C 698.517 168.839, 697.914 168.403, 691 165.980 C 677.993 161.422, 669.603 154.645, 665.111 145.067 C 662.902 140.357, 662.500 138.114, 662.500 130.500 C 662.500 122.667, 662.863 120.761, 665.300 115.797 C 668.274 109.742, 675.842 102.127, 681.948 99.047 C 683.901 98.061, 688.538 96.237, 692.250 94.992 C 698.694 92.833, 698.996 92.589, 698.920 89.615 C 698.876 87.902, 697.413 82.225, 695.670 77 C 692.509 67.527, 692.490 67.499, 689 67.271 C 687.075 67.145, 682.350 68.074, 678.500 69.335 M 213.004 72.996 C 210.115 75.885, 155.776 184.975, 156.407 186.619 C 156.826 187.709, 160.104 188, 171.960 188 C 185.194 188, 187.110 187.792, 188.051 186.250 C 188.638 185.287, 191.261 179.775, 193.879 174 L 198.639 163.500 215.686 163 C 225.062 162.725, 233.504 162.652, 234.446 162.839 C 235.520 163.051, 238.198 167.517, 241.623 174.807 C 244.628 181.203, 247.630 186.781, 248.294 187.203 C 248.957 187.624, 256.152 187.976, 264.281 187.985 C 275.942 187.997, 279.175 187.708, 279.593 186.619 C 280.224 184.975, 225.885 75.885, 222.996 72.996 C 221.888 71.888, 219.665 71, 218 71 C 216.335 71, 214.112 71.888, 213.004 72.996 M 539.220 73.018 C 520.935 77.808, 507.893 88.451, 500.105 104.935 C 495.802 114.043, 494.726 120.467, 495.255 133.895 C 495.776 147.157, 497.294 152.825, 502.720 161.772 C 510.551 174.685, 521.729 183.118, 537.355 187.901 C 551.907 192.356, 574.404 190.105, 588.314 182.801 C 595.444 179.058, 606.417 168.627, 610.375 161.832 C 623.804 138.775, 620.004 106.938, 601.636 88.613 C 586.570 73.583, 561.229 67.251, 539.220 73.018 M 988.513 74.167 C 987.047 75.909, 973.717 101.607, 958.890 131.274 C 937.278 174.519, 932.167 185.496, 933.111 186.633 C 934.049 187.764, 937.250 187.996, 948.894 187.776 L 963.500 187.500 969.454 175.250 L 975.408 163 993.582 163 C 1006.962 163, 1011.998 163.330, 1012.677 164.250 C 1013.184 164.938, 1015.564 169.775, 1017.965 175 C 1020.367 180.225, 1023.002 185.287, 1023.821 186.250 C 1025.119 187.776, 1027.275 188, 1040.655 188 C 1055.343 188, 1056 187.914, 1056 185.996 C 1056 183.601, 1003.867 78.923, 1000.346 74.250 C 996.951 69.743, 992.263 69.710, 988.513 74.167 M 292.242 73.770 C 291.250 74.446, 291.038 86.603, 291.242 131.064 L 291.500 187.500 305.363 187.779 C 314.732 187.967, 319.675 187.685, 320.613 186.907 C 321.717 185.990, 322 181.388, 322 164.378 L 322 143 328.378 143 C 332.288 143, 335.136 143.484, 335.739 144.250 C 336.280 144.938, 341.351 154.050, 347.008 164.500 C 352.665 174.950, 358.206 184.512, 359.321 185.750 C 361.261 187.903, 362.030 188, 377.174 188 C 392.760 188, 393 187.967, 393 185.824 C 393 184.627, 387.760 174.615, 381.355 163.574 C 365.625 136.459, 366.317 137.780, 367.614 137.319 C 368.227 137.102, 370.764 135.633, 373.252 134.055 C 379.222 130.269, 383.692 123.569, 385.714 115.376 C 388.581 103.759, 385.301 91.421, 377.335 83.860 C 367.989 74.989, 362.263 73.848, 324.500 73.334 C 307.450 73.102, 292.934 73.298, 292.242 73.770 M 407.242 73.830 C 406.250 74.459, 406.038 86.578, 406.242 131.064 L 406.500 187.500 444.770 187.762 L 483.040 188.024 484.020 185.447 C 485.284 182.124, 485.292 165.898, 484.032 162.584 L 483.064 160.038 460.282 159.769 L 437.500 159.500 437 117.213 C 436.573 81.086, 436.281 74.788, 435 73.978 C 433.185 72.831, 409.018 72.702, 407.242 73.830 M 716.616 74.291 C 714.970 75.495, 714.876 78.185, 715.225 114.041 C 715.653 157.943, 716.043 160.411, 724.330 171.655 C 733.986 184.756, 746.183 190, 767 190 C 779.376 190, 787.197 188.423, 795.966 184.158 C 803.399 180.543, 811.932 171.913, 815.401 164.503 C 820.444 153.730, 820.964 148.678, 820.983 110.285 C 820.999 76.483, 820.922 75.029, 819.066 74.035 C 816.176 72.488, 792.506 72.685, 791.193 74.267 C 790.516 75.083, 790.025 87.999, 789.815 110.517 C 789.462 148.273, 789.252 149.831, 783.702 155.868 C 776.309 163.910, 759.691 163.910, 752.298 155.868 C 746.783 149.869, 746.564 148.248, 746.188 110.505 C 745.965 88.232, 745.460 75.054, 744.797 74.255 C 743.318 72.473, 719.060 72.504, 716.616 74.291 M 844.571 74.571 C 843.181 75.962, 843 82.459, 843 130.949 C 843 176.078, 843.241 185.955, 844.367 186.890 C 845.346 187.702, 856.487 187.950, 883.617 187.762 L 921.500 187.500 922 181.408 C 922.275 178.057, 922.275 171.982, 922 167.908 L 921.500 160.500 898.500 160 L 875.500 159.500 875 117.213 C 874.573 81.086, 874.281 74.788, 873 73.978 C 872.175 73.457, 865.795 73.024, 858.821 73.015 C 848.614 73.003, 845.837 73.306, 844.571 74.571 M 322.750 99.564 C 322.337 99.987, 322 104.083, 322 108.667 L 322 117 334.250 116.998 C 348.325 116.997, 352.864 115.557, 354.128 110.694 C 355.140 106.799, 353.411 102.521, 350.200 100.980 C 347.192 99.536, 323.946 98.337, 322.750 99.564 M 545.027 101.737 C 538.434 104.064, 530.910 112.076, 528.734 119.088 C 520.496 145.631, 540.614 167.946, 565.987 160.411 C 573.327 158.231, 581.942 149.703, 584.459 142.123 C 587.043 134.345, 586.255 122.283, 582.711 115.362 C 579.524 109.139, 573.363 103.653, 567.205 101.554 C 561.450 99.593, 550.853 99.680, 545.027 101.737 M 212.935 127.518 C 210.771 132.203, 209 136.478, 209 137.018 C 209 138.247, 224.673 138.339, 225.429 137.114 C 226.005 136.182, 218.431 119, 217.444 119 C 217.129 119, 215.100 122.833, 212.935 127.518 M 989.060 127.614 C 986.839 132.352, 985.269 136.627, 985.570 137.114 C 986.379 138.423, 1002 138.239, 1002 136.921 C 1002 135.196, 994.599 119, 993.811 119 C 993.418 119, 991.280 122.876, 989.060 127.614" stroke="none" fill="#070707" fill-rule="evenodd"/></svg>